<svg xmlns="http://www.w3.org/2000/svg" viewBox="0 0 512 512">
  <rect width="512" height="512" rx="112" fill="#2563eb"/>
  <g stroke="#ffffff" stroke-width="20" stroke-linecap="round" stroke-linejoin="round" fill="none">
    <rect x="156" y="156" width="200" height="200" rx="18"/>
    <rect x="206" y="206" width="100" height="100" rx="10"/>
    <line x1="256" y1="86" x2="256" y2="156"/>
    <line x1="256" y1="356" x2="256" y2="426"/>
    <line x1="156" y1="256" x2="86" y2="256"/>
    <line x1="426" y1="256" x2="356" y2="256"/>
    <line x1="196" y1="116" x2="196" y2="156"/>
    <line x1="316" y1="116" x2="316" y2="156"/>
    <line x1="196" y1="356" x2="196" y2="396"/>
    <line x1="316" y1="356" x2="316" y2="396"/>
    <line x1="116" y1="196" x2="156" y2="196"/>
    <line x1="116" y1="316" x2="156" y2="316"/>
    <line x1="356" y1="196" x2="396" y2="196"/>
    <line x1="356" y1="316" x2="396" y2="316"/>
  </g>
</svg>
